<svg viewBox="0 0 101 40" fill="none" xmlns="http://www.w3.org/2000/svg">
<g id="CombinationMark-5 1">
<path id="Vector" d="M19.5602 18.1982H30.6892L13.4861 36.6667H11.5633L14.4957 21.8018H3.36667L20.5698 3.33333H22.4925L19.5602 18.1982Z" fill="var(--fill-0, #A0FF79)"/>
<path id="Vector_2" d="M52.8972 31.884H46.9933L38.1221 8.09523H43.5719L49.9603 26.2272H50.142L56.4396 8.09523H61.7684L52.8972 31.884ZM68.8229 32.271C74.0003 32.271 77.9969 28.996 77.9969 23.1307C77.9969 17.2653 74.0609 13.9903 68.8229 13.9903C63.0097 13.9903 59.6491 17.9203 59.6491 23.1307C59.6491 29.0258 63.7667 32.271 68.8229 32.271ZM68.8229 27.9242C66.1282 27.9242 64.6447 25.7805 64.6447 23.1307C64.6447 20.4808 66.1282 18.3372 68.8229 18.3372C71.6689 18.3372 73.0011 20.6 73.0011 23.1307C73.0011 25.6613 71.6689 27.9242 68.8229 27.9242ZM80.1162 31.9138H84.9605V8.09523H80.1162V31.9138ZM97.465 31.9138H91.9546C89.6232 31.9138 87.9883 30.8717 87.9883 28.0433L88.0186 8.09523H92.772V14.3476H97.465V18.1585H92.8326V28.1028H97.465V31.9138Z" fill="var(--fill-0, #FCFCFC)"/>
</g>
</svg>
